<?xml version="1.0" encoding="utf-8"?>
<!-- Generator: Adobe Illustrator 22.1.0, SVG Export Plug-In . SVG Version: 6.00 Build 0)  -->
<svg version="1.1" xmlns="http://www.w3.org/2000/svg" xmlns:xlink="http://www.w3.org/1999/xlink" x="0px" y="0px"
	 viewBox="0 0 381.6 381.6" style="enable-background:new 0 0 381.6 381.6;" xml:space="preserve">
<style type="text/css">
	.st0{fill:#603B1F;}
	.st1{fill:#664F30;}
	.st2{fill:#7F6044;}
	.st3{fill:#543C08;}
	.st4{fill:#4C3A12;}
	.st5{fill:#AA9761;}
	.st6{fill:#89855D;}
	.st7{fill:#6D6141;}
	.st8{fill:#6B5110;}
	.st9{fill:#AD9855;}
	.st10{fill:#8E6426;}
	.st11{fill:#704F16;}
</style>
<g id="Layer_1">
</g>
<g id="Layer_2">
	<g>
		<path class="st0" d="M105.4,249.7l-3.2-1.2l-5.3-1.6c0,0-0.7-0.1-1.6-0.2c-1.8-0.2-4.5-0.6-4.8-0.7c-0.5-0.2-6.6-1.4-7.1-1.6
			c-0.5-0.2-4.9,1.1-4.9,1.1l-5-0.2l-0.8,0.6l1.7,0.6l2.9,0.2l3,0.1l1.8-1l2.7,0l6.9,0.8l6.9,1.7l3.3,1.3l3,0.4L105.4,249.7z"/>
		<polygon class="st0" points="92.6,266.6 91.4,262 91.8,257.9 90.9,258.1 90,258.3 89.9,261.5 90.6,265.1 91.3,267.4 		"/>
		<polygon class="st0" points="88.3,256.4 86.5,256.1 86.3,257.9 89.4,259 90.8,259.3 91.4,258.5 		"/>
		<polygon class="st0" points="87.1,257 84.7,255 84.4,256.4 84.9,257.7 87.6,257.6 		"/>
		<polygon class="st1" points="108.5,266 105.2,267.3 100.4,267.3 92.3,265.6 91.2,267.6 91.9,269.3 94.9,269.1 99.8,269.8 
			104.7,269.4 108.2,268.2 109.4,267.2 		"/>
		<polygon class="st2" points="94.9,269.1 91.9,269.3 91.2,267.6 91.3,267.4 94.1,267.8 98.7,268.1 102.1,268.3 104.1,268.4 
			106.6,267.5 108.8,266.4 109.4,267.2 108.2,268.2 104.7,269.4 99.8,269.8 		"/>
		<polygon class="st0" points="104.1,293.4 100,293.8 94.2,296.1 93.1,298.1 94,299.1 95.9,297.8 99,296.1 103.2,294.6 104.9,293.9 
					"/>
		<polygon class="st0" points="94.2,298.3 89.9,299 90,301.1 91.7,300.4 		"/>
		<path class="st0" d="M90.5,299.4l-2.7,0.1l0.1,1.6c0.7,0.2,2.6-1.1,2.6-1.1L90.5,299.4z"/>
		<polygon class="st1" points="109.6,279.8 107.5,284.1 106.2,292.5 104.8,294.9 102.8,293.5 104.5,289.9 105.6,282.7 108.4,278.4 
					"/>
		<polygon class="st2" points="104.6,293 105.8,288.8 106.4,283.3 109,279.1 109.6,279.8 107.5,284.1 106.2,292.5 104.8,294.9 
			104,294.3 		"/>
		<polygon class="st3" points="110,274.3 107.3,277.4 108,280.2 109.8,281 112.6,279.2 		"/>
		<polygon class="st0" points="142.7,274.7 145.5,271.8 150.9,268.5 153.1,268.9 153.4,270.2 151.2,271 148,272.4 144.3,274.8 
			142.7,275.7 		"/>
		<polygon class="st0" points="152.7,269.9 155.8,266.9 157.4,268.3 155.9,269.2 		"/>
		<path class="st0" d="M155.8,267.6l1.7-2.1l1.2,1c-0.2,0.7-2.4,1.4-2.4,1.4L155.8,267.6z"/>
		<polygon class="st0" points="128.6,247.2 125.7,243.5 122.2,241.4 122.9,240.8 123.6,240.1 126.2,242 128.7,244.8 130,246.8 		"/>
		<polygon class="st0" points="123.1,237.6 124,236.1 125.5,237 124.5,240.1 123.9,241.5 122.9,241.4 		"/>
		<polygon class="st0" points="124.3,237.1 124.2,234 125.5,234.6 126.2,235.7 124.5,237.9 		"/>
		<polygon class="st1" points="118.5,259.6 121.5,257.7 124.4,253.9 128,246.4 130.2,246.8 131.2,248.3 129.2,250.6 126.8,254.9 
			123.5,258.6 120.4,260.7 118.9,261 		"/>
		<polygon class="st2" points="129.2,250.6 131.2,248.3 130.2,246.8 130,246.8 128.7,249.2 126.1,253 124.2,255.8 123,257.5 
			120.8,259 118.6,260.1 118.9,261 120.4,260.7 123.5,258.6 126.8,254.9 		"/>
		<polygon class="st1" points="128.6,271 133.3,271.9 140.8,275.9 143.5,276.2 143.6,273.8 139.7,273 133.4,269.5 128.2,269.1 		"/>
		<polygon class="st2" points="142.1,274.9 138.1,273.4 133.3,270.5 128.4,270.1 128.6,271 133.3,271.9 140.8,275.9 143.5,276.2 
			143.6,275.3 		"/>
		<polygon class="st3" points="124,267.9 128.1,267.7 129.9,269.9 129.4,271.8 126.3,273 		"/>
		<path class="st1" d="M110.3,275.6l-0.2,4.5l1.7,6.1l5.1,9.1l7.5,9.9l7.4,7.9l9,9.3l3,4.2l2.1-0.1l2.3-0.9l-1.5-4.8L146,316
			c0,0-1.4-7-1.7-7.4c-0.2-0.4-5.5-14.5-5.5-14.5l-6-13.2l-5.3-9.5l-2.9-2.8L110.3,275.6z"/>
		<path class="st0" d="M114.6,279.2l1.6,2.1l5,7.1l4.2,5.8l5.6,8.3l4,6.6l5.6,8.4c0,0,2.1,3.4,2.3,3.8c0.1,0.2,1.5,2.9,2.6,5.1
			l0.4,0l2.2-0.9l-1.6-3.1l-4.7-9.1l-3.2-8.7l-5-11.5l-6.4-13.6l-5.2-9.4l-0.2-0.4l-9.8,4.9L114.6,279.2z"/>
		<path class="st2" d="M124.6,268.5l-0.9,0.5c1.1,1.5,2.9,3.9,3.2,4.1c0.4,0.4,3.4,6.1,4.1,7.2c0.7,1.1,3.4,6.4,3.9,7.5
			c0.5,1,6.6,16.2,6.9,16.8c0.3,0.6,2,5.1,2.3,5.7c0.3,0.6,1.7,5.4,2,5.8c0,0-1.4-7-1.7-7.4c-0.2-0.4-5.5-14.5-5.5-14.5l-6-13.2
			l-5.3-9.5L124.6,268.5z"/>
		<path class="st2" d="M110.3,275.6l-0.2,4.5l1.7,6.1l5.1,9.1l7.5,9.9l7.4,7.9l6.8,7l-1-2.4l-4.5-6.2l-4.6-5.2c0,0-4.4-5.2-4.8-5.5
			c-0.4-0.4-4.9-7.3-4.9-7.3l-2.1-3.4l-3.3-6.3l-2.3-8.6L110.3,275.6z"/>
		<polygon class="st4" points="119.6,278.9 121.3,277.9 122.4,280.8 125.7,286.6 130.7,295.6 133.4,300.4 133.8,302.4 133.1,302.4 
			130.8,298.2 125.4,288.9 120.9,281 119.4,279.5 		"/>
		<polygon class="st0" points="131.8,276.5 131.3,281.6 137.2,293.9 142.8,304.1 146.2,310.9 147.9,318.9 150.6,319.8 152.6,317.6 
			150,311.9 147.8,306.2 145.5,297.5 141.6,287.6 136.8,280.1 		"/>
		<path class="st2" d="M132.6,277.1c1.5,2.3,3.4,5.3,3.6,5.5c0.2,0.4,4.1,7.2,4.5,7.9c0.4,0.7,3.1,7.7,3.3,8.1
			c0.2,0.4,2.2,6.6,2.2,6.6l2.6,6.8l3,6.4l0.8-0.9l-2.6-5.7l-2.2-5.7l-2.3-8.8l-3.9-9.9l-4.8-7.5L132.6,277.1z"/>
		<path class="st4" d="M145.5,307.3l-2.8-6l-2.7-5.5c0,0-2.9-5.5-3.1-6c-0.2-0.4-3.1-6-3.4-6.4c-0.1-0.3-1.2-2.8-1.9-4.6l-0.3,2.8
			l5.9,12.3l5.7,10.2l3.4,6.8l1.7,8.1l1.6,0.5l-0.7-2.4c0,0-1.4-5.4-1.6-5.8C147,310.7,145.5,307.3,145.5,307.3z"/>
		<path class="st1" d="M134.2,282l2.5,5c0,0,3.3,6.3,3.5,6.7c0.2,0.4,3.5,7.5,3.5,7.5l-2-5.6l-2.2-5.2l-3.4-6.2l-1.3-2.3L134.2,282z
			"/>
		<path class="st0" d="M107.6,247.9l-0.2-3.4l0-5.5c0,0,0.1-0.7,0.3-1.5c0.3-1.8,0.7-4.4,0.7-4.8c-0.1-0.5,0.5-6.7,0.5-7.2
			c-0.1-0.5,2.4-4.3,2.4-4.3l1.3-4.9l0.8-0.6l0.1,1.8l-0.6,2.9l-0.7,2.9l-1.5,1.5l-0.7,2.6l-1.2,6.8l-0.3,7.1l0.3,3.5l-0.5,3
			L107.6,247.9z"/>
		<path class="st1" d="M103.8,252.4l-0.9-2.1l1.3-1.4l1.9-1c0,0,1.6-0.4,2-0.1c0.4,0.4,1.2,1.6,1.2,1.6L103.8,252.4z"/>
		<polygon class="st4" points="105.4,251.6 103.5,251.4 101.8,253.5 102.3,256.4 103,259 103.5,260.4 107.3,257.6 		"/>
		<polygon class="st4" points="107.1,251.3 108.3,248.9 111.3,248.6 114.2,251.2 116,254.8 112.1,255.8 108.7,253.1 		"/>
		<path class="st3" d="M103.5,251.4l-1.7,2.1l0.5,2.8c0.7-0.1,1.5-0.3,1.5-0.3l2.4-1.5l0.1-0.4l-0.8-2.6L103.5,251.4z"/>
		<polygon class="st3" points="111.7,251.7 113.3,250.4 111.3,248.6 108.3,248.9 107.1,251.3 108.5,252.9 109.7,252.5 		"/>
		<polygon class="st2" points="105.3,258.9 104.4,255.1 104.6,251.1 106.7,249.8 110.4,250.9 113.6,254 113.9,255.6 		"/>
		<polygon class="st1" points="102.8,260.8 104.8,258.9 108.6,257 113.5,254.9 116.4,254.2 121.8,264.6 120.9,265.4 115.3,268.3 
			109.2,271.5 		"/>
		<path class="st2" d="M121.8,264.6l-5.3-10.4l-3,0.7l-1.3,0.5c0.6,1.3,1.4,2.9,1.6,3.2c0.4,0.5,1.9,3.1,2.4,3.8
			c0.4,0.5,1.7,2.7,2.6,4.1l2-1.1L121.8,264.6z"/>
		<path class="st2" d="M111.8,270.2c-0.1-0.4-0.3-0.7-0.3-0.9c-0.3-0.6-2.8-6-2.8-6s-1.7-3.2-2.7-5.1l-1.1,0.6l-2,1.9l6.4,10.8
			L111.8,270.2z"/>
		<polygon class="st0" points="109.2,262.2 110.4,264.7 114.9,262.3 113.6,260 		"/>
		<polygon class="st0" points="110.9,265.6 112.1,268.5 117.3,266.1 115.4,263.3 		"/>
		<polygon class="st2" points="109.2,271.5 114.8,268.4 120.3,265.3 121.8,264.6 125.8,268.7 123.1,273.1 120.2,277 116.9,278.2 
			109.9,276.3 108.9,274.3 		"/>
		<polygon class="st1" points="114.7,270.1 116.3,273.2 116.8,275.7 118.4,276.4 118.6,274.6 117.3,273.1 115.5,269.7 		"/>
		<path class="st4" d="M125.8,268.7l-4-4.1l-1.5,0.7l-1.9,1.1c0.9,1.4,2.1,3.3,2.4,3.5c0.3,0.3,1.3,2.4,2,3.8l0.4-0.5L125.8,268.7z"
			/>
		<path class="st4" d="M108.9,274.3l1,2.1l5.3,1.4c0-0.1-0.1-0.1-0.1-0.1l-1.9-3.8l-2.3-3.2l-1.7,1L108.9,274.3z"/>
		<polygon class="st0" points="111.5,286.3 116,288.6 123,300.3 128.4,310.7 132.2,317.2 138,323.1 137.2,325.8 134.3,326.2 
			131,320.9 127.5,315.9 121.5,309.2 115.3,300.5 111.7,292.4 		"/>
		<path class="st2" d="M111.5,287.3c1.1,2.5,2.5,5.8,2.6,6c0.2,0.4,3.7,7.4,4.1,8.1c0.4,0.7,4.7,6.8,5,7.2c0.2,0.4,4.3,5.5,4.3,5.5
			l4.2,5.9l3.7,6.1l-1.2,0.2l-3.3-5.3l-3.5-5l-6-6.7l-6.1-8.7l-3.7-8.1L111.5,287.3z"/>
		<path class="st4" d="M129.6,314.6l-3.5-5.6l-3.1-5.3c0,0-3-5.5-3.3-5.9c-0.2-0.4-3.3-5.9-3.5-6.3c-0.2-0.3-1.7-2.5-2.8-4.1
			l2.5,1.3l7,11.7l5.4,10.4l3.8,6.5l5.8,5.9l-0.4,1.6l-1.7-1.9c0,0-3.7-4.1-4-4.5C131.7,317.8,129.6,314.6,129.6,314.6z"/>
		<path class="st1" d="M114.7,291.3l2.8,4.8c0,0,3.4,6.2,3.7,6.6c0.2,0.4,4.3,7,4.3,7l-3.6-4.8l-3.1-4.7l-3.3-6.3l-1.2-2.4
			L114.7,291.3z"/>
	</g>
	<g>
		<path class="st5" d="M114,63.5l-1.5-2.6l-2.7-4c0,0-0.4-0.4-1-1c-1.1-1.1-2.7-2.8-2.8-3.1c-0.2-0.4-3.7-4.6-3.9-5
			c-0.2-0.4-4-1.8-4-1.8l-3.3-2.8l-0.9,0l0.8,1.4l1.9,1.8l2,1.7l1.8,0.3l1.8,1.5l4.3,4.3l3.8,5l1.5,2.7l1.9,1.9L114,63.5z"/>
		<g>
			<polygon class="st5" points="91.8,74 92.2,69.7 93.8,66.3 93,66.2 92.1,66.1 91.1,68.8 90.6,72.2 90.5,74.4 			"/>
			<polygon class="st5" points="91.3,64 89.9,63.3 89.2,64.7 91.4,66.5 92.6,67.3 93.2,66.7 			"/>
			<polygon class="st5" points="90.2,64.2 88.8,61.8 88.1,62.9 88.1,64.2 90.4,64.9 			"/>
			<polygon class="st6" points="105.1,78.1 102,78.3 98.1,76.9 91.9,73.1 90.4,74.5 90.4,76.2 93,76.9 96.8,78.9 101,79.9 
				104.2,79.9 105.5,79.4 			"/>
			<polygon class="st7" points="93,76.9 90.4,76.2 90.4,74.5 90.5,74.4 92.7,75.5 96.4,77.1 99.1,78.2 100.8,78.9 103.1,78.9 
				105.3,78.5 105.5,79.4 104.2,79.9 101,79.9 96.8,78.9 			"/>
		</g>
		<polygon class="st5" points="88.4,94.1 85.4,92.2 80.1,90.7 78.2,91.6 78.2,92.8 80.3,92.9 83.3,93.3 87.1,94.5 88.6,94.9 		"/>
		<polygon class="st5" points="78.8,92.3 75.5,90.5 74.4,92.1 75.9,92.5 		"/>
		<path class="st5" d="M75.7,91.1l-1.9-1.4l-0.9,1.2c0.3,0.5,2.4,0.6,2.4,0.6L75.7,91.1z"/>
		<polygon class="st6" points="99.9,87.4 96,89.4 90.3,94.7 88,95.6 87.5,93.5 90.7,91.8 95.4,87.3 99.8,85.7 		"/>
		<polygon class="st7" points="89,94.1 92.2,91.8 95.7,88.1 99.9,86.6 99.9,87.4 96,89.4 90.3,94.7 88,95.6 87.8,94.7 		"/>
		<polygon class="st3" points="103.3,83.6 99.7,84.4 98.5,86.8 99.4,88.3 102.3,88.6 		"/>
		<polygon class="st5" points="131.3,74.3 131.4,70 130.3,66.6 131.1,66.6 131.9,66.5 132.6,69.2 132.8,72.6 132.6,74.7 		"/>
		<polygon class="st5" points="133,64.4 134.5,63.8 135,65.3 132.6,66.9 131.4,67.6 130.8,67 		"/>
		<polygon class="st5" points="134.1,64.6 135.8,62.4 136.3,63.5 136.2,64.7 133.8,65.3 		"/>
		<polygon class="st6" points="117.4,77.7 120.5,78 124.7,76.8 131.4,73.4 132.7,74.8 132.5,76.5 129.8,77 125.7,78.8 121.4,79.7 
			118.1,79.5 116.9,78.9 		"/>
		<polygon class="st7" points="129.8,77 132.5,76.5 132.7,74.8 132.6,74.7 130.2,75.7 126.4,77.1 123.5,78.1 121.7,78.6 119.3,78.5 
			117.2,78.1 116.9,78.9 118.1,79.5 121.4,79.7 125.7,78.8 		"/>
		<g>
			<polygon class="st5" points="126.7,99.5 129.9,98.1 135.2,97.5 136.7,98.7 136.4,99.9 134.5,99.6 131.6,99.6 127.9,100.1 
				126.3,100.3 			"/>
			<polygon class="st5" points="136,99.3 139.4,98 140.1,99.8 138.6,100 			"/>
			<path class="st5" d="M139.1,98.6l2.1-1.1l0.5,1.3c-0.4,0.5-2.3,0.2-2.3,0.2L139.1,98.6z"/>
			<polygon class="st6" points="117.7,90.9 120.8,93.5 124.8,99.7 126.7,101 127.7,99 125.2,96.9 121.8,91.6 118.1,89.3 			"/>
			<polygon class="st7" points="126.2,99.4 123.8,96.6 121.4,92.3 117.9,90.1 117.7,90.9 120.8,93.5 124.8,99.7 126.7,101 
				127.1,100.2 			"/>
		</g>
		<polygon class="st3" points="116.4,86.6 119.4,88.7 119.4,91.3 117.9,92.4 115.2,91.5 		"/>
		<path class="st6" d="M102.3,84.8l-2.9,3.5l-2.5,6l-1.7,10.4l-0.4,12.5l0.8,10.8l1.2,12.9l-0.3,5.2l1.7,1.2l2.4,0.6l1.9-4.8
			l2.3-4.3c0,0,3.2-6.5,3.3-7c0.1-0.5,4.8-15.1,4.8-15.1l3.6-14.3l1.8-10.8l-0.5-4L102.3,84.8z"/>
		<path class="st5" d="M103.4,90.2l-0.1,2.7l-0.6,8.7l-0.4,7.2l-0.8,10l-1,7.8l-0.9,10.2c0,0-0.5,4-0.6,4.5
			c-0.1,0.3-0.6,3.2-1.1,5.7l0.4,0.2l2.3,0.6l0.7-3.4l2-10.1l2.9-9l3.3-12.3l3.5-14.8l1.8-10.7l0.1-0.5l-10.6-1.9L103.4,90.2z"/>
		<path class="st7" d="M117.8,87.5l-1-0.2c-0.1,1.9-0.1,4.9-0.1,5.2c0.1,0.5-1.2,6.9-1.3,8.2c-0.1,1.3-1.4,7.2-1.6,8.3
			c-0.2,1.1-5,17.1-5.2,17.7c-0.1,0.7-1.6,5.3-1.8,5.9c-0.1,0.7-2,5.4-2.1,5.9c0,0,3.2-6.5,3.3-7c0.1-0.5,4.8-15.1,4.8-15.1
			l3.6-14.3l1.8-10.8L117.8,87.5z"/>
		<path class="st7" d="M102.3,84.8l-2.9,3.5l-2.5,6l-1.7,10.4l-0.4,12.5l0.8,10.8l0.9,9.7l0.7-2.5l0.3-7.7l-0.3-7
			c0,0-0.2-6.8-0.2-7.3c-0.1-0.5,0.8-8.8,0.8-8.8l0.5-4l1.4-7l3.6-8.3L102.3,84.8z"/>
		<polygon class="st8" points="107.3,92.1 109,92.3 108.1,95 107,100.9 105.4,110.1 104.5,115 103.7,116.7 103.2,116.3 104,112 
			105.5,102.4 106.9,94.3 106.7,92.5 		"/>
		<polygon class="st5" points="118.4,98.3 114.8,102.1 111.7,115.5 109.7,127.2 108.1,134.7 104.4,142.3 106,144.5 108.9,143.9 
			110.4,137.8 112.2,131.9 115.9,123.4 119,113.1 120.1,104.1 		"/>
		<path class="st7" d="M118.6,99.2c-0.3,2.8-0.6,6.3-0.7,6.6c-0.1,0.5-1.3,8.2-1.5,9.1c-0.2,0.8-2.4,8-2.5,8.5
			c-0.1,0.5-2.4,6.7-2.4,6.7l-2.2,7.1l-1.6,7l1.1-0.2l1.5-6.2l1.8-5.9l3.7-8.5l3.2-10.3l1-8.9L118.6,99.2z"/>
		<path class="st8" d="M109.8,131.3l1.6-6.5l1.3-6c0,0,1.2-6.2,1.3-6.7c0.1-0.5,1.3-6.7,1.4-7.2c0.1-0.3,0.8-2.9,1.4-4.8l-2,2.1
			l-3.1,13.4l-2,11.6l-1.6,7.5l-3.7,7.6l0.9,1.3l1-2.4c0,0,2.3-5.2,2.4-5.7C108.8,135,109.8,131.3,109.8,131.3z"/>
		<path class="st6" d="M116.9,104.1l-1.2,5.5c0,0-1.4,7-1.5,7.5c-0.1,0.5-1.9,8.1-1.9,8.1l1.9-5.8l1.5-5.5l1.2-7.1l0.4-2.6
			L116.9,104.1z"/>
		<path class="st5" d="M116.6,63.4l1.8-2.5l3.1-4c0,0,0.4-0.4,1-1c1.2-1.1,3-2.8,3.2-3.1c0.2-0.4,4.2-4.5,4.4-4.9
			c0.2-0.4,4.1-1.8,4.1-1.8l3.6-2.8l0.9,0l-0.9,1.3l-2,1.7l-2.2,1.7l-1.8,0.3l-2,1.4l-4.7,4.3l-4.3,5l-1.8,2.7l-2.1,1.9L116.6,63.4z
			"/>
		<path class="st6" d="M111.4,64.5l0.6-2l1.7-0.3l1.9,0.4c0,0,1.4,0.6,1.4,1c0,0.5-0.1,1.8-0.1,1.8L111.4,64.5z"/>
		<polygon class="st8" points="113,64.8 111.7,63.7 109.4,64.3 108.1,66.6 107.1,68.9 106.7,70.2 110.8,70.2 		"/>
		<polygon class="st8" points="114.3,65.5 116.5,64.4 118.7,65.9 119.2,69.4 118.4,72.9 115.2,71.5 114.4,67.7 		"/>
		<path class="st3" d="M111.7,63.7l-2.4,0.6l-1.2,2.3c0.5,0.3,1.2,0.6,1.2,0.6l2.5,0.2l0.3-0.2l0.9-2.3L111.7,63.7z"/>
		<polygon class="st3" points="117.2,68.4 119,68.3 118.7,65.9 116.5,64.4 114.3,65.5 114.4,67.5 115.4,67.9 		"/>
		<polygon class="st7" points="108.7,70 110.3,66.8 112.7,64.1 114.8,64.3 116.8,67.1 117.2,71 116.6,72.3 		"/>
		<polygon class="st6" points="106,70 108.4,69.7 112.1,70.4 116.6,71.6 119,72.7 116.8,83 115.7,83.1 110.3,82.2 104.3,81.2 		"/>
		<path class="st7" d="M116.8,83l2.2-10.4l-2.4-1.1l-1.2-0.3c-0.3,1.3-0.7,2.8-0.7,3.1c0,0.6-0.5,3.3-0.5,4c0,0.6-0.4,2.9-0.6,4.4
			l2,0.3L116.8,83z"/>
		<path class="st7" d="M106.8,81.6c0.1-0.4,0.2-0.7,0.3-0.8c0.1-0.6,1.5-5.8,1.5-5.8s0.7-3.2,1-5.1l-1.1-0.2L106,70l-1.7,11.2
			L106.8,81.6z"/>
		<polygon class="st5" points="109.5,74.5 109,77 113.4,77.7 113.8,75.3 		"/>
		<polygon class="st5" points="108.8,77.8 108,80.6 113,81.7 113.2,78.7 		"/>
		<polygon class="st7" points="104.3,81.2 109.9,82 115.4,82.8 116.8,83 117.3,88.1 112.9,89.9 108.7,91 105.8,90.2 102.1,85.1 
			102.5,83 		"/>
		<polygon class="st6" points="108.9,83.2 108.2,86.2 107.1,88.3 107.8,89.7 109,88.5 109,86.7 109.6,83.3 		"/>
		<path class="st8" d="M117.3,88.1l-0.5-5.1l-1.4-0.3l-1.9-0.3c-0.2,1.5-0.4,3.5-0.3,3.8c0,0.3-0.5,2.4-0.8,3.8l0.6-0.2L117.3,88.1z
			"/>
		<path class="st8" d="M102.5,83l-0.5,2l2.8,3.9c0-0.1,0-0.1,0-0.1l0.9-3.8l0.2-3.5l-1.7-0.2L102.5,83z"/>
		<polygon class="st5" points="96.5,94.1 98.6,98.7 96.8,112.3 94.5,123.9 93.4,131.5 94.2,139.7 91.9,141.4 89.4,140.1 90.1,133.8 
			90.5,127.7 90,118.6 90.7,107.9 92.9,99.2 		"/>
		<path class="st7" d="M95.9,94.9c-0.7,2.7-1.7,6.2-1.7,6.5c-0.1,0.5-1.7,8.2-1.8,9c-0.1,0.8-0.6,8.3-0.6,8.8c-0.1,0.5-0.1,7-0.1,7
			l-0.4,7.3l-0.9,7.1l-1-0.5l0.7-6.3l0.4-6.1l-0.5-9l0.7-10.7l2.2-8.8L95.9,94.9z"/>
		<path class="st8" d="M93,127.8l0.8-6.6l0.9-6.1c0,0,1.1-6.2,1.2-6.7c0.1-0.5,1.2-6.7,1.2-7.2c0-0.3,0.3-3,0.4-5l1.1,2.5l-1.8,13.6
			l-2.3,11.6l-1.1,7.6l0.8,8.2l-1.3,1l-0.1-2.5c0,0-0.3-5.6-0.3-6C92.6,131.6,93,127.8,93,127.8z"/>
		<path class="st6" d="M96.9,98.3l-0.8,5c0,0-1.2,6.3-1.2,6.7c-0.1,0.4-1,7.4-1,7.4l0.3-5.4l0.5-5l1.3-6.3l0.5-2.3L96.9,98.3z"/>
	</g>
	<g>
		<path class="st9" d="M182.8,153.6l-0.1,3.4l0.2,5.5c0,0,0.1,0.7,0.3,1.5c0.3,1.8,0.8,4.4,0.8,4.8c-0.1,0.5,0.8,6.7,0.7,7.2
			c-0.1,0.5,2.6,4.3,2.6,4.3l1.4,4.8l0.8,0.6l0.1-1.8l-0.7-2.9l-0.8-2.9l-1.5-1.4l-0.8-2.5l-1.4-6.8l-0.6-7.1l0.2-3.5l-0.6-3
			L182.8,153.6z"/>
		<polygon class="st9" points="202.9,160.5 198.9,163 194.9,164 195.4,164.7 195.9,165.6 198.9,164.7 202.2,162.8 204.1,161.4 		"/>
		<polygon class="st9" points="194.6,167.8 194.9,169.5 196.7,169.2 196.7,165.9 196.6,164.4 195.6,164.2 		"/>
		<polygon class="st9" points="195.5,168.7 194.5,171.6 195.9,171.4 196.9,170.6 196,168 		"/>
		<polygon class="st10" points="197.3,145.5 199.5,148.3 201,152.8 202,161.1 204.3,161.4 205.7,160.3 204.5,157.5 203.6,152.6 
			201.7,148.1 199.4,145.1 198.1,144.3 		"/>
		<polygon class="st11" points="204.5,157.5 205.7,160.3 204.3,161.4 204.1,161.4 203.6,158.6 202.4,154.2 201.5,150.9 200.9,148.9 
			199.3,146.8 197.6,145.1 198.1,144.3 199.4,145.1 201.7,148.1 203.6,152.6 		"/>
		<polygon class="st9" points="224.6,141.1 226.3,144.8 230.4,149.6 232.6,149.9 233.3,148.8 231.4,147.4 228.9,145 226.1,141.5 
			224.9,140.1 		"/>
		<polygon class="st9" points="232.5,148.9 234.5,152.8 236.4,151.9 235.3,150.5 		"/>
		<path class="st9" d="M234.7,152.1l0.9,2.6l1.5-0.6c0-0.7-1.9-2.1-1.9-2.1L234.7,152.1z"/>
		<polygon class="st10" points="210,140.1 214.8,140.7 223.2,139.3 225.9,139.9 225.2,142.2 221.2,141.8 214.1,143 209.1,141.7 		
			"/>
		<polygon class="st11" points="224.1,140.7 219.8,140.8 214.3,142.1 209.6,140.9 210,140.1 214.8,140.7 223.2,139.3 225.9,139.9 
			225.6,140.8 		"/>
		<polygon class="st3" points="204.7,141.5 208.5,143 210.9,141.5 211.1,139.5 208.5,137.4 		"/>
		<polygon class="st9" points="194.7,110.3 191,108.6 186.2,104.5 185.9,102.3 187,101.6 188.4,103.5 190.8,106.1 194.3,108.9 
			195.6,110 		"/>
		<polygon class="st9" points="186.9,102.4 183.1,100.4 183.9,98.5 185.3,99.6 		"/>
		<path class="st9" d="M183.8,100.2l-2.6-0.9l0.6-1.5c0.7,0,2.1,1.9,2.1,1.9L183.8,100.2z"/>
		<polygon class="st9" points="173.1,132.5 170.5,136.4 169.6,140.4 168.8,139.9 168,139.4 168.9,136.4 170.8,133.1 172.2,131.3 		
			"/>
		<polygon class="st9" points="165.8,140.7 164,140.4 164.4,138.6 167.6,138.6 169.1,138.7 169.4,139.7 		"/>
		<polygon class="st9" points="164.8,139.8 161.9,140.8 162.1,139.4 163,138.4 165.5,139.3 		"/>
		<polygon class="st10" points="188,138.1 185.3,135.8 180.8,134.3 172.5,133.3 172.2,131 173.4,129.7 176.1,130.8 181,131.7 
			185.5,133.7 188.4,136 189.3,137.3 		"/>
		<polygon class="st11" points="176.1,130.8 173.4,129.7 172.2,131 172.2,131.3 175,131.8 179.4,132.9 182.7,133.9 184.6,134.5 
			186.7,136.1 188.4,137.8 189.3,137.3 188.4,136 185.5,133.7 181,131.7 		"/>
		<polygon class="st10" points="195.6,124.9 195,120.2 196.5,111.8 195.9,109.1 193.6,109.8 194,113.7 192.7,120.8 194,125.9 		"/>
		<polygon class="st11" points="195.1,110.8 194.9,115.1 193.6,120.6 194.8,125.4 195.6,124.9 195,120.2 196.5,111.8 195.9,109.1 
			194.9,109.4 		"/>
		<polygon class="st3" points="194.2,130.3 192.7,126.4 194.2,124 196.2,123.9 198.3,126.5 		"/>
		<path class="st10" d="M205.8,140.8l4.3-1.3l5.2-3.6l7-7.7l7-10.2l5.1-9.5l6-11.5l3-4.2l-0.8-2l-1.6-1.9l-4.1,2.9l-4.2,2.3
			c0,0-6.2,3.6-6.5,3.9c-0.3,0.3-12,9.9-12,9.9l-10.6,9.9l-7.4,8l-1.8,3.6L205.8,140.8z"/>
		<path class="st9" d="M207.8,135.6l1.5-2.2l5.1-7l4.2-5.8l6.1-7.9l5-5.9l6.2-8c0,0,2.6-3,2.9-3.4c0.2-0.2,2.2-2.3,4-4.1l-0.2-0.4
			l-1.6-1.8l-2.4,2.5l-7.1,7.3l-7.2,5.8l-9.3,8.4l-10.9,10.3l-7.2,7.9l-0.3,0.4l7.7,7.8L207.8,135.6z"/>
		<path class="st11" d="M194.6,129.5l0.7,0.7c1.1-1.5,2.7-4,2.9-4.3c0.2-0.5,4.7-5.1,5.5-6.2c0.8-1,5-5.2,5.8-6
			c0.8-0.8,13.3-11.4,13.8-11.9c0.5-0.5,4.2-3.5,4.7-3.9c0.5-0.5,4.6-3.4,4.9-3.7c0,0-6.2,3.6-6.5,3.9c-0.3,0.3-12,9.9-12,9.9
			l-10.6,9.9l-7.4,8L194.6,129.5z"/>
		<path class="st11" d="M205.8,140.8l4.3-1.3l5.2-3.6l7-7.7l7-10.2l5.1-9.5l4.5-8.7l-1.9,1.7l-4.4,6.3l-3.5,6c0,0-3.5,5.8-3.7,6.3
			c-0.2,0.5-5.4,7-5.4,7l-2.6,3l-4.9,5.1l-7.4,4.9L205.8,140.8z"/>
		<polygon class="st8" points="206,130.9 204.5,129.6 206.9,127.6 211.3,122.8 218.4,115.1 222,111 223.7,110 224,110.7 
			220.7,114.2 213.7,122.3 207.6,129 206.7,130.9 		"/>
		<polygon class="st9" points="199.9,120.1 204.9,119 214.6,109.5 222.5,100.9 227.9,95.6 235,91.3 234.9,88.5 232.2,87.4 
			227.7,91.7 223,95.5 215.4,100.5 207.3,107.3 201.6,114.2 		"/>
		<path class="st11" d="M200.2,119.1c1.7-2.2,3.9-4.9,4.1-5.1c0.3-0.3,5.5-6.2,6.1-6.7c0.6-0.6,6.3-5.3,6.7-5.7
			c0.4-0.3,5.6-4.2,5.6-4.2l5.6-4.6l5.1-4.9l-1.1-0.5l-4.6,4.3l-4.7,3.9l-7.6,5l-8.2,6.8l-5.6,6.9L200.2,119.1z"/>
		<path class="st8" d="M224.7,97.4l-4.8,4.5l-4.3,4.3c0,0-4.3,4.5-4.7,4.9c-0.3,0.3-4.7,4.9-5,5.2c-0.2,0.2-2.2,2-3.7,3.3l2.7-0.6
			l9.8-9.5l7.9-8.6l5.4-5.3l7.1-4.2l0-1.7l-2.1,1.4c0,0-4.7,3-5,3.4C227.5,94.8,224.7,97.4,224.7,97.4z"/>
		<path class="st10" d="M204.3,116.1l4-4c0,0,4.9-5.1,5.3-5.5c0.4-0.3,6-5.7,6-5.7l-4.7,3.7l-4.2,3.7l-4.8,5.2l-1.8,2L204.3,116.1z"
			/>
		<path class="st9" d="M180.4,152.2l-3.1,1.3l-5.2,1.7c0,0-0.7,0.1-1.5,0.2c-1.8,0.3-4.4,0.7-4.7,0.9c-0.5,0.2-6.5,1.6-7,1.8
			c-0.5,0.2-4.9-0.9-4.9-0.9l-5,0.3L148,157l1.6-0.7l2.9-0.3l3-0.2l1.9,0.9l2.7-0.1l6.9-1l6.9-2l3.3-1.4l3-0.5L180.4,152.2z"/>
		<path class="st10" d="M185.9,154.4l-1.8,1.5l-1.7-0.8l-1.5-1.5c0,0-0.9-1.4-0.7-1.9c0.2-0.5,1.2-1.6,1.2-1.6L185.9,154.4z"/>
		<polygon class="st8" points="184.6,153.1 185.1,155 187.6,155.9 190.2,154.5 192.4,153 193.6,152.1 189.7,149.4 		"/>
		<polygon class="st8" points="183.8,151.6 181.1,151.2 179.9,148.4 181.5,144.8 184.3,142 186.5,145.4 185,149.5 		"/>
		<path class="st3" d="M185.1,155l2.6,0.9l2.5-1.3c-0.3-0.6-0.7-1.3-0.7-1.3l-2.2-1.8l-0.4,0l-2.2,1.6L185.1,155z"/>
		<polygon class="st3" points="182.7,147 181,146 179.9,148.4 181.1,151.2 183.8,151.6 184.8,149.7 184.1,148.7 		"/>
		<polygon class="st11" points="191.6,150.9 188.3,152.9 184.4,154 182.5,152.4 182.4,148.5 184.3,144.5 185.7,143.7 		"/>
		<polygon class="st10" points="194.1,152.7 191.7,151.4 188.7,148.3 185.2,144.4 183.6,141.8 191.7,133.4 192.8,134 197.3,138.3 
			202.3,143.1 		"/>
		<path class="st11" d="M191.7,133.4l-8.2,8.4l1.6,2.6l0.9,1c1-1,2.3-2.2,2.5-2.5c0.4-0.6,2.3-2.8,2.8-3.5c0.3-0.5,2-2.5,3.1-3.8
			l-1.7-1.6L191.7,133.4z"/>
		<path class="st11" d="M200.3,141.1c-0.4,0.3-0.6,0.5-0.7,0.6c-0.5,0.5-4.8,4.5-4.8,4.5s-2.5,2.6-3.9,4.2l0.9,0.9l2.4,1.3l8.2-9.5
			L200.3,141.1z"/>
		<polygon class="st9" points="193.5,146.1 195.5,144.2 191.7,140.6 190,142.6 		"/>
		<polygon class="st9" points="196.2,143.5 198.5,141.4 194.5,137.2 192.5,139.8 		"/>
		<polygon class="st11" points="202.3,143.1 197.6,138.8 192.9,134.6 191.7,133.4 194.3,128.3 199.4,129.5 204,131 206.2,133.7 
			206.6,140.9 205,142.5 		"/>
		<polygon class="st10" points="199.2,138.3 201.6,135.9 203.9,134.6 204,132.9 202.2,133.2 201.2,135 198.6,137.8 		"/>
		<path class="st8" d="M194.3,128.3l-2.6,5.1l1.2,1.2l1.7,1.5c1.1-1.3,2.4-3.1,2.5-3.3c0.2-0.3,1.9-2,2.9-3.1l-0.6-0.2L194.3,128.3z
			"/>
		<path class="st8" d="M205,142.5l1.6-1.6l-0.3-5.5c-0.1,0.1-0.1,0.1-0.1,0.1l-3,3l-2.3,3.2l1.5,1.3L205,142.5z"/>
		<polygon class="st9" points="215.6,136.3 216.4,131.3 225.2,120.9 233.3,112.5 238.3,106.8 242.1,99.5 244.8,99.3 246.2,101.9 
			242.2,106.8 238.6,111.7 234.2,119.6 227.9,128.1 221.3,134.2 		"/>
		<path class="st11" d="M216.5,136c2.1-1.8,4.7-4.2,4.9-4.4c0.3-0.4,5.8-5.9,6.3-6.5c0.5-0.6,4.9-6.6,5.3-7c0.3-0.4,3.8-5.9,3.8-5.9
			l4.3-5.9l4.6-5.4l0.5,1l-4,4.8l-3.6,4.9l-4.5,7.9l-6.3,8.6l-6.5,6.1L216.5,136z"/>
		<path class="st8" d="M236.7,110.1l-4.2,5.1l-4,4.6c0,0-4.3,4.6-4.6,5c-0.3,0.4-4.6,5-4.9,5.3c-0.2,0.2-1.8,2.4-3,3.9l0.4-2.8
			l8.8-10.4l8.1-8.4l5-5.7l3.8-7.3l1.7-0.1l-1.3,2.2c0,0-2.7,4.8-3,5.2C239,107.2,236.7,110.1,236.7,110.1z"/>
		<path class="st10" d="M219.3,131.7l3.7-4.2c0,0,4.8-5.2,5.1-5.6c0.3-0.4,5.3-6.3,5.3-6.3l-3.4,4.9l-3.4,4.4l-4.9,5.1l-1.9,1.9
			L219.3,131.7z"/>
	</g>
</g>
</svg>
