
<svg version="1.1" id="BACKGROUND1" xmlns="http://www.w3.org/2000/svg" xmlns:xlink="http://www.w3.org/1999/xlink" x="0px"
	 y="0px" viewBox="0 0 461.1 347.6" style="enable-background:new 0 0 461.1 347.6;" xml:space="preserve">
<style type="text/css">
	.st0{opacity:0.2;}
	.st1{fill:#666666;}
</style>
<g>
	<g class="st0">
		<path class="st1" d="M457.1,83.2c0-1.2,0-2.3-0.1-3.5c-0.3-3.8-1.6-7.5-3-10c-1.4-2.5-2.7-3.8-2.9-3.7c-0.2,0.1,0.8,1.7,1.7,4.3
			c0.4,1.1,0.8,2.3,1.1,3.7c-0.6-1.1-1.2-2.2-1.8-3.2c-0.6-1.1-1.2-2.2-1.7-3.3c-0.2-2.8-0.7-5.7-1.7-8.4
			c-2.1-6.7-6.5-12.4-10.6-15.7c-2-1.7-4-2.8-5.3-3.5c-0.7-0.4-1.3-0.6-1.6-0.8c-0.4-0.2-0.6-0.2-0.6-0.2s-0.2-0.1-0.6-0.2
			c-0.4-0.2-1-0.3-1.7-0.5c-0.8-0.2-1.6-0.5-2.7-0.7c-1.1-0.1-2.2-0.4-3.6-0.5c-2.6-0.2-5.6-0.2-8.8,0c-3.2,0.3-6.6,0.7-9.9,1.3
			c-4.4,0.7-8.9,1.4-12.8,1.6c-1.1-0.4-2.3-0.8-3.6-1.4c-0.7-0.3-1.5-0.6-2.2-1c0,0,0,0,0,0c-0.1-0.1-0.2-0.1-0.3-0.2
			c-0.4-0.3-0.8-0.6-1.3-0.9c-0.1-0.1-0.2-0.1-0.3-0.2c-0.4-0.2-0.7-0.5-1.1-0.7c-0.2-0.1-0.3-0.2-0.5-0.3c-0.3-0.2-0.6-0.4-1-0.6
			c-0.2-0.1-0.4-0.2-0.6-0.3c-0.3-0.2-0.7-0.4-1-0.6c-0.2-0.1-0.4-0.2-0.6-0.3c-0.4-0.2-0.8-0.5-1.2-0.7c-0.2-0.1-0.3-0.2-0.5-0.3
			c-1.1-0.7-2.3-1.3-3.5-2c-0.2-0.1-0.4-0.2-0.5-0.3c-0.4-0.2-0.9-0.5-1.3-0.7c-0.2-0.1-0.4-0.2-0.6-0.3c-0.4-0.2-0.8-0.4-1.2-0.7
			c-0.2-0.1-0.5-0.2-0.7-0.4c-0.4-0.2-0.9-0.4-1.3-0.7c-0.2-0.1-0.4-0.2-0.6-0.3c-0.6-0.3-1.1-0.5-1.7-0.8c-0.1,0-0.2-0.1-0.3-0.1
			c-0.7-0.3-1.3-0.6-2-0.9c-0.2-0.1-0.3-0.1-0.5-0.2c-0.5-0.2-1-0.4-1.5-0.6c-0.2-0.1-0.5-0.2-0.7-0.3c-0.5-0.2-0.9-0.4-1.4-0.5
			c-0.3-0.1-0.5-0.2-0.8-0.3c-0.5-0.2-0.9-0.3-1.4-0.5c-0.2-0.1-0.5-0.2-0.7-0.3c-0.5-0.2-1-0.4-1.5-0.5c-0.2-0.1-0.4-0.1-0.5-0.2
			c-0.7-0.2-1.4-0.4-2.1-0.6c-0.1,0-0.3-0.1-0.4-0.1c-0.6-0.2-1.1-0.3-1.7-0.5c-0.2-0.1-0.5-0.1-0.7-0.2c-0.5-0.1-0.9-0.2-1.4-0.3
			c-0.3-0.1-0.5-0.1-0.8-0.2c-0.4-0.1-0.9-0.2-1.3-0.2c-0.3,0-0.5-0.1-0.8-0.1c-0.5-0.1-0.9-0.1-1.4-0.2c-0.2,0-0.4-0.1-0.7-0.1
			c-0.7-0.1-1.4-0.1-2.1-0.2h0c-1-0.1-2-0.1-3-0.1c-0.2,0-0.5,0-0.7,0c-1,0-2,0-3,0.1c0,0,0,0-0.1,0c-1,0-2,0.1-2.9,0.2
			c-0.2,0-0.5,0-0.7,0.1c-1,0.1-2,0.2-3,0.3c0,0-0.1,0-0.1,0c-1,0.1-1.9,0.3-2.9,0.4c-0.2,0-0.4,0.1-0.6,0.1c-1,0.2-2,0.3-2.9,0.5
			c0,0,0,0-0.1,0c-1,0.2-1.9,0.4-2.9,0.6c-0.2,0-0.4,0.1-0.5,0.1c-1,0.2-1.9,0.4-2.8,0.7c0,0,0,0,0,0l0,0c-6.3,1.6-11.9,3.5-16,5.2
			c-3.5,0.7-6.8,1.3-9.6,1.6c-0.9,0.1-1.8,0.2-2.6,0.3c-2.7-0.7-6.4-1.5-10.5-2.3c-0.3-0.1-0.6-0.2-0.9-0.3
			c-3.6-1.1-7.4-1.9-10.9-2.3c-3.5-0.4-6.9-0.4-9.7-0.2c-2.9,0.1-5.2,0.5-6.9,0.8c-1.6,0.3-2.6,0.5-2.6,0.5s-0.2,0-0.7,0.2
			c-0.4,0.1-1.1,0.3-1.9,0.5c-1.6,0.5-3.9,1.2-6.5,2.3c-2.6,1.1-5.7,2.5-8.6,5c-1.4,1.2-2.7,2.8-3.5,4.7c-0.4,0.9-0.7,2-0.9,3
			c-0.1,1-0.2,2.1-0.1,3.1c0.1,0.6,0.2,1.2,0.3,1.8c0,0,0,0,0,0c-0.1,0.2-0.2,0.4-0.2,0.6c0,0,0,0.1,0,0.1c0,0.2-0.1,0.3-0.1,0.5
			c0,0.1,0,0.1,0,0.2c0,0.1,0,0.3,0,0.4c0,0.1,0,0.1,0,0.2c0,0.1,0,0.2,0,0.4c0,0.1,0,0.1,0,0.2c0,0.2,0,0.3,0.1,0.5
			c0.5,2.1,2.4,5,4.7,7.8c0.2,0.2,0.3,0.4,0.5,0.6c1.3,2.1,2.6,4,4.1,5.4c1.5,1.5,3.2,2.6,4.6,3.1c0.4,0.3,0.8,0.6,1.1,0.9
			c0.2,0.1,0.3,0.2,0.5,0.4c-0.3,0.2-0.5,0.4-0.8,0.6c0,0,0,0,0,0c0-0.1-1.1,0.2-2.9,0.9c-1.8,0.6-4.3,1.8-7.3,3.3
			c-5.9,3.1-13.2,8.2-20.1,13.7c-1.9,1.5-3.7,3-5.5,4.5c-6.6-1.2-15.6-0.7-25.1,2c-17.5,4.9-30,14.9-27.9,22.5
			c0.2,0.7,0.6,1.4,1,2.1c-0.1,0.8,0,1.5,0.2,2.2c0.3,1,0.8,2,1.6,2.8c-1,0.6-2,1.2-3,1.8c-7.5,4.9-14,11-18.6,15.7
			c-0.8,0.9-1.6,1.6-2.3,2.4c-6,3.6-12.3,7.4-17.9,10.8c-1.5,0.5-2.9,1-4.2,1.5c-0.6,0.2-1.2,0.5-1.8,0.7c-0.6,0.2-1.1,0.5-1.6,0.7
			c-1,0.4-1.9,0.8-2.6,1.1c-1.4,0.7-2.3,1.1-2.3,1.1s-0.2,0.1-0.6,0.3c-0.4,0.2-0.9,0.5-1.6,0.9c-0.7,0.4-1.5,0.9-2.5,1.4
			c-1,0.5-2,1.2-3.2,1.9c-2.9,1.8-6.3,4.1-9.9,6.6c-5.3,0.2-11.6,1.7-19.1,5.7l0,0l0,0c-0.5,0.2-0.9,0.5-1.4,0.7c0,0,2.6,2.3,7,4.4
			c-2.9,2.5-5.5,4.8-7.7,6.8c-2,1.8-3.6,3.4-4.7,4.5c-1.5,0.5-5.7,3-9.9,5.6c-1.8,0.2-3.8,1-5.9,2.3c-4.5,0.5-9.5,0.6-12.1,3.6
			c-1.3,0.8-2.5,1.9-3.5,3.1c-2,2.5-3.1,5.6-3.2,7.9c-0.1,2.4,0.4,3.8,0.6,3.8c0.3,0,0.2-1.5,0.7-3.6c0.3-1.1,0.8-2.4,1.5-3.6
			c-2.3,7-1.1,13.5-0.1,20.4l0,0c0.1,0.6,0.2,1.1,0.2,1.7c0,0,0,0,0,0c0.1,0.5,0.1,1.1,0.2,1.6c0,0.1,0,0.1,0,0.2
			c0.1,0.5,0.1,0.9,0.1,1.4c0,0.1,0,0.3,0,0.4c0,0.4,0.1,0.8,0.1,1.2c0,0.1,0,0.3,0,0.4c0,0.5,0.1,1.1,0.1,1.6c0,0.1,0,0.1,0,0.2
			c0,0.5,0,0.9,0,1.4c0,0.2,0,0.3,0,0.5c0,0.4,0,0.8,0,1.2c0,0.2,0,0.3,0,0.5c0,0.6-0.1,1.1-0.1,1.7c-0.1,0.6-0.1,1.3-0.2,2
			c-0.1,0.7-0.2,1.3-0.3,2c0,0.3-0.1,0.6-0.1,0.9c0-3.6,0-7.2-0.1-10.6c-0.1-4.2-0.4-8.1-0.8-11.5c-0.4-3.3-1-6.1-1.5-8
			c-0.5-1.9-0.9-3-1-2.9C17,216,18,220.4,18.4,227c0.2,3.3,0.3,7.2,0.2,11.4c-0.1,4.2-0.3,8.6-0.4,13.1c-0.2,4.9-0.3,9.8-0.3,14.4
			c0,0.5-0.1,1-0.1,1.4c-0.1,1.4-0.2,2.8-0.2,4.2c0,2.1,0.2,4.1,0.5,6.1c0.8,4.6,5.9,12.4,10.6,12.3c1.3,0,2.6-0.7,3.8-2.2
			c0.5-0.6,0.9-1.4,1.4-2.2c0.8-0.7,1.6-1.5,2.2-2.4c1.1-1.6,1.8-3.4,2.4-5.3c0.6-1.9,1-3.9,1.4-6c0.8-4.1,1.5-8.6,2-13.1
			c0-0.1,0-0.2,0-0.2c0.9-3.9,1.7-7.1,2.3-8.6c0.7-1.7,2.1-3.1,3.8-4.2c2.7-1.6,6.1-2.2,8.5-0.6c0.9,0.6,1.6,1.4,2.1,2.6
			c0.3,0.8,0.8,2.4,1.2,4.6c0.1,0.5,0.2,1.1,0.4,1.7c0.1,0.3,0.1,0.6,0.2,0.9c0.4,1.9,0.8,4.2,1.2,6.6c0.1,0.4,0.1,0.8,0.2,1.2
			c1.3,7.5,2.7,16.6,4,25.3c0.1,0.5,0.1,1,0.2,1.4c0.3,2.3,0.6,4.5,0.9,6.6c0.1,1.5,0.2,3,0.4,4.6c0.4,4.2,1,8.3,1.8,12.4
			c0.1,1.2,0.2,2.1,0.2,2.5c0,4.5,1.9,23.1,13.1,23.6c0.7,0,1.5,0,2.4-0.1c6.7-1.1,11.3-3.1,14.4-6.4c0.4-0.4,0.7-0.9,1.1-1.3
			c0.6-0.8,1-1.6,1.5-2.5c0.2-0.3,0.3-0.7,0.4-1c1.1-2.7,1.7-5.8,1.8-9.6c0.1-2.8,0.2-7.4,0.3-13.1c0,0,0,0,0,0
			c0.1-3.6,0.1-7.7,0.2-11.9c0-1.4,0.1-2.9,0.1-4.3c0.1-2.9,0.1-5.9,0.2-8.9c0-2,0.1-4,0.1-5.9c0-0.5,0-1,0-1.5
			c0-2.4,0.1-4.8,0.1-7.1c0.1-2.8,0.1-5.4,0.2-7.9c0-0.4,0-0.8,0-1.2c0-0.8,0-1.6,0-2.3c0-0.4,0-0.8,0-1.1c0.1-2.2,0.1-4.2,0.2-5.9
			c0-0.6,0-1.1,0.1-1.6c0-1,0.1-1.9,0.1-2.6c0.1-1.1,0.1-2.3,0.3-3.5c0.1-1.5,0.3-3.1,0.6-4.7c0-0.2,0-0.3,0.1-0.5
			c3.1-0.1,6.1-0.2,9.2-0.3c0.1,0.5,0.3,1.1,0.4,1.6c-2,0.2-3.7,0.4-5.1,0.5c-2.8,0.3-4.5,0.6-4.4,0.7c0,0.1,1.6,0.1,4.5,0
			c1.5-0.1,3.3-0.1,5.4-0.2c0.6,2.2,1.2,4.4,1.8,6.6c0.8,2.9,1.8,5.9,4,8.3c1.1,1.2,2.6,2.1,4.1,2.4c1.6,0.3,3.1,0.1,4.4-0.4
			c2.5-1,3.9-2.6,4.8-3.6c0.9-1.1,1.3-1.8,1.3-1.8s0.5-0.7,1.1-1.9c0.6-1.2,1.5-2.9,2.2-5.1c0.6-1.9,1.2-4.1,1.6-6.5
			c5.5-0.5,11.2-1.2,16.9-1.9c13-1.7,25.9-3.6,35.6-5.3c1.6-0.3,3.1-0.5,4.5-0.8c0.9,3.7,2.1,7.4,3.9,10c0.7,1.4,1.6,2.8,3,3.9
			c1,0.7,2.2,1.3,3.5,1.3c1.3,0.1,2.6-0.3,3.6-0.9c1.2-0.7,2-1.6,2.7-2.6c0.8-0.7,1.4-1.5,1.9-2.4c1.5-2.5,2.2-5.9,2.5-9.5
			c0-0.1,0-0.2,0-0.3c0.1-1.3,0.2-2.6,0.2-3.9c1.9-0.4,4-0.9,6.3-1.5c2.8-0.7,5.8-1.4,9.1-2.2c8.3-1.8,16.6-3.7,24.9-5.6
			c1.1,2.4,2.2,4.9,3.1,7.4c1.5,4.1,2.8,8.4,3.7,12.4c0,0.4,0,0.9-0.1,1.4c0,0.3,0,0.6-0.1,0.9c0,0.3-0.1,0.7-0.1,1.1
			c-0.1,1-0.2,2-0.3,3.1c-0.1,0.8-0.2,1.6-0.3,2.5c-0.1,0.8-0.2,1.5-0.2,2.3c0,0.1,0,0.2,0,0.3c-0.2,1.7-0.4,3.5-0.6,5.3
			c0,0.1,0,0.3,0,0.5c-1.2,1.7-2.2,3.6-3,5.8c-2.8,7.4-2,14.5,1.7,16c0,1.6,0,3.2,0.1,4.8c0.5,14.3,3.6,27.1,13.5,30.2
			c5.4,1.7,9,0.4,11.3-2.8c0.8-1.1,1.4-2.3,1.9-3.7c0.1-0.2,0.1-0.3,0.2-0.5c0.2-0.5,0.3-0.9,0.4-1.4c0.3-1,0.5-2.1,0.6-3.2
			c0.2-1,0.3-2.1,0.4-3.2c0-0.4,0.1-0.8,0.1-1.2c0-0.1,0-0.2,0-0.2c0.6-1.5,1.1-3.2,1.4-5c0.5-3.1,0.3-6.4-0.2-9.7
			c-0.5-3.2-1.3-6.4-2-9.3c-0.7-2.9-1.3-5.6-1.7-7.9c-0.5-2.3-0.7-4.3-1-5.6c-0.2-1.4-0.3-2.2-0.3-2.2s-0.1-0.4-0.2-1.2
			c-0.5-5.3-0.8-13.3-0.8-21.8c0-4.9,0.1-9.9,0.3-14.5c0.1-1.4,0.2-2.9,0.2-4.2c0.1-1,0.2-2.1,0.2-3c0.9-0.2,1.9-0.5,2.8-0.7
			c0,0,0,0,0,0h0c6.4-1.6,12.8-3.2,19.1-4.9c0.8-0.2,1.5-0.3,2.3-0.5c9.1-2,18-4.5,24.7-6.6c3.3-1.1,6.1-2,8-2.7
			c1.2-0.4,2.1-0.8,2.6-0.9c4.9-1.7,9.8-3.5,14.6-5.4c0.5,0.1,1,0.1,1.5,0.1c1.6,0,3.1-0.3,4.4-0.7c1.3-0.4,2.4-0.9,3.4-1.3
			c0.5-0.2,0.9-0.5,1.3-0.7c0.4-0.2,0.8-0.4,1.1-0.6c1.3-0.8,2-1.3,2-1.3s0.2-0.1,0.5-0.4c0.2-0.2,0.6-0.5,1-0.8
			c1.6-0.6,3.1-1.2,4.7-1.7c12.5-4.4,28.9-12.4,37-24.6c6.4-9.6,4.8-19.6,6.6-29c0.1-0.5,0.2-1,0.3-1.4c0-0.1,0-0.1,0-0.2
			c0.1-0.4,0.2-0.9,0.3-1.3c0-0.1,0-0.1,0-0.2c0.3-1,0.6-1.9,1-2.9c0-0.1,0.1-0.1,0.1-0.2c0.2-0.4,0.3-0.8,0.5-1.2
			c0.1-0.1,0.1-0.3,0.2-0.4c0.2-0.3,0.3-0.6,0.5-0.9c0.1-0.2,0.2-0.3,0.3-0.5c0.2-0.3,0.4-0.6,0.6-0.9c0.1-0.1,0.2-0.3,0.3-0.4
			c0.3-0.4,0.6-0.9,1-1.3c0,0,0,0,0,0c1.1-1.4,2.5-2.6,3.9-3.6c0.3-0.2,0.6-0.4,0.9-0.6c0.6-0.4,1.2-0.8,1.9-1.1
			c0.3-0.2,0.6-0.4,1-0.5c1.3-0.7,2.6-1.3,4-2c2-1,4-2,5.8-3.1c0.9-0.6,1.8-1.2,2.6-1.8c0.5-0.4,1.1-0.9,1.6-1.4
			c0.5-0.5,0.9-1,1.4-1.6c0.6-0.9,1.2-1.8,1.6-2.8c0.4-1,0.8-2.2,1-3.5C457.3,87.1,457.3,85.1,457.1,83.2z M138,233.1
			c0-0.1,0-0.1,0-0.2c0.4,0,0.8,0,1.2-0.1c0,0,0,0.1,0,0.1C138.8,233,138.4,233,138,233.1z M394.1,41.4c-1.6,0.5-2.7,0.9-2.7,0.9
			c0,0-0.4-0.3-1.2-0.9c1,0,2.1,0,3.2-0.1C393.7,41.3,393.9,41.4,394.1,41.4z M88.1,165.5c-0.9,1.1-1.9,2.2-3,3.2
			c-0.6-0.1-1.2-0.2-1.9-0.3c1.8-1.1,3.5-2.2,5.1-3.2C88.2,165.3,88.1,165.4,88.1,165.5z M291.5,29.7c-0.7,0.3-1.1,0.5-1.1,0.5
			s-0.4-0.1-1.2-0.3C289.9,29.8,290.7,29.7,291.5,29.7z M225.3,38.9c0.7-1.4,1.8-2.7,3-3.7c2.5-2,5.4-3.3,7.9-4.3
			c2.5-1,4.7-1.6,6.2-2c0.2-0.1,0.4-0.1,0.6-0.1c-1,0.4-1.9,0.9-2.8,1.4l0,0c0,0,0,0,0,0c-1,0.5-1.9,1-2.8,1.6
			c-0.1,0-0.1,0.1-0.2,0.1c-0.3,0.2-0.5,0.3-0.8,0.5c-0.1,0-0.2,0.1-0.2,0.1c-0.3,0.2-0.5,0.3-0.8,0.5c0,0,0,0-0.1,0
			c-0.9,0.5-1.7,1.1-2.5,1.7c-0.1,0.1-0.2,0.1-0.2,0.2c-0.2,0.2-0.4,0.3-0.6,0.5c-0.1,0.1-0.2,0.1-0.3,0.2c-0.2,0.2-0.4,0.3-0.6,0.5
			c-0.1,0.1-0.2,0.1-0.2,0.2c-0.7,0.5-1.3,1-1.9,1.5c-0.1,0.1-0.2,0.2-0.3,0.3c-0.2,0.1-0.3,0.3-0.5,0.4c-0.1,0.1-0.2,0.2-0.3,0.3
			c-0.1,0.1-0.3,0.3-0.4,0.4c-0.1,0.1-0.2,0.2-0.3,0.3c-0.1,0.1-0.3,0.2-0.4,0.4c-0.2,0.2-0.4,0.4-0.6,0.6c-0.1,0.1-0.2,0.2-0.3,0.3
			c-0.1,0.1-0.2,0.3-0.4,0.4c-0.1,0.1-0.2,0.2-0.3,0.3c-0.1,0.1-0.2,0.3-0.3,0.4c-0.1,0.1-0.2,0.2-0.3,0.3c0,0,0,0.1-0.1,0.1
			c0-0.4,0.1-0.7,0.1-1.1C224.7,40.4,224.9,39.6,225.3,38.9z M227.1,72.8c2.8-1.6,5.2-3,6.9-3.8c1.1-0.6,1.9-1,2.3-1.2
			c-1.6,1.3-3,2.7-4.4,4.3c-1.4,0-2.3,0-2.3,0c-0.6,0.4-10.2,7.2-22.3,15.7c0.2-0.2,0.4-0.3,0.6-0.5
			C214.6,81.5,221.5,76.1,227.1,72.8z M149,125.2c1.3-0.8,2.6-1.5,3.9-2.1c0.3,0.2,0.7,0.4,1.1,0.6c-1.9,0.1-3.5,0.8-4.3,1.6
			c-0.9,0.9-1,1.6-0.9,1.6c0.1,0.1,0.4-0.5,1.3-1.2c0.1-0.1,0.2-0.1,0.3-0.2c0,0-0.1,0.1-0.1,0.1c-1,0.7-1.9,1.7-2.4,3
			c-1,0.6-2,1.2-3.1,1.9c-1-0.2-2,0-2.7,0.5c-1.7,1.1-3.1,2.4-4.3,3.8c-2,1.2-4,2.4-6.1,3.7C136.3,134.2,142.3,129.2,149,125.2z
			 M68.3,180.3c-2.4,1.4-4.7,2.8-6.9,4.1c1.8-1.4,3.8-3,5.8-4.5C67.5,180,67.9,180.2,68.3,180.3z M137.3,240c-0.8,2-1.6,3.5-2.2,4.6
			c-0.2,0.3-0.3,0.5-0.4,0.7c0.1-0.2,0.2-0.4,0.2-0.5c0-0.1,0.1-0.2,0.1-0.3c0.1-0.3,0.2-0.6,0.3-0.9c0-0.1,0.1-0.2,0.1-0.3
			c0.1-0.4,0.3-0.7,0.4-1.1c0,0,0,0,0-0.1c0.8-2.3,1.3-4.8,1.7-7.3c0.4,0,0.8-0.1,1.2-0.1C138.5,236.7,137.9,238.5,137.3,240z"/>
		<path class="st1" d="M207.4,279.4c-17.6-4.5-33.5-1.9-35.4,5.6c-0.2,0.7-0.2,1.5-0.2,2.3c-0.4,0.6-0.7,1.3-0.9,2
			c-1.9,7.6,10.8,17.3,28.4,21.8c17.6,4.5,33.5,1.9,35.4-5.6c0.2-0.7,0.2-1.5,0.1-2.3c0.4-0.7,0.7-1.3,0.9-2.1
			C237.7,293.6,225,283.8,207.4,279.4z"/>
		<path class="st1" d="M128.9,68.9c0,0-0.5-1-1.5-2.4c-0.1-0.1-0.1-0.2-0.2-0.2c-0.1-0.1-0.2-0.2-0.2-0.3c-0.1-0.1-0.1-0.2-0.2-0.2
			c-0.1-0.1-0.2-0.2-0.3-0.3c-0.1-0.1-0.1-0.2-0.2-0.2c-0.4-0.4-0.8-0.8-1.2-1.3c-0.1-0.1-0.1-0.1-0.2-0.2c-0.2-0.1-0.3-0.3-0.5-0.4
			c-0.1-0.1-0.1-0.1-0.2-0.2c-0.2-0.2-0.4-0.3-0.5-0.5c0,0,0,0,0,0c-0.7-0.5-1.4-1.1-2.2-1.6c0,0,0,0,0,0c-0.3-0.2-0.6-0.4-0.8-0.5
			c0,0,0,0,0,0c-5.6-3.3-14.5-5.8-27.9-2.9c0,0,0,0,0,0l0,0c-0.5,0.1-1,0.2-1.6,0.3C91.1,58,104.2,78.5,128.9,68.9z"/>
		<path class="st1" d="M79.1,101.3c0,0.5,0,1,0.2,1.5c1.4,5,10.5,8.2,20.3,5.5c9.8-2.8,16.7-10.5,15.3-15.4
			c-0.1-0.4-0.3-0.8-0.5-1.2c0-0.5,0-1-0.2-1.5c-1.4-5-10.5-6.7-20.3-4c-9.8,2.8-16.7,9-15.3,14C78.7,100.5,78.9,100.9,79.1,101.3z
			 M95.9,93.4c2.8-0.8,5.5-0.8,7.4-0.2c0.5,1.9-2.1,4.3-5.9,5.3c-3.8,1.1-7.2,0.4-7.8-1.5c0,0,0,0,0,0
			C90.9,95.5,93.1,94.2,95.9,93.4z"/>
		<path class="st1" d="M342.3,295.5c0-0.3,0-0.5,0-0.5S342.3,295.2,342.3,295.5L342.3,295.5l-0.9-1h0l0,0c-0.1-0.1-0.2-0.1-0.3-0.1
			c0,0,0,0-0.1,0c0,0,0,0,0,0c0,0,0,0-0.1,0c-0.2-0.1-0.3-0.1-0.5-0.2c0,0-0.1,0-0.1,0c0,0,0,0,0,0c0,0,0,0-0.1,0
			c-0.1,0-0.1,0-0.2-0.1c-0.2-0.1-0.4-0.1-0.5-0.1c-0.1,0-0.1,0-0.2-0.1c-0.1,0-0.2,0-0.3-0.1c-0.1,0-0.3,0-0.4-0.1
			c-0.1,0-0.1,0-0.2,0c0,0,0,0,0,0c-0.3,0-0.6-0.1-0.8-0.1c-0.2,0-0.3,0-0.5,0c-0.3,0-0.7,0-1,0c-0.2,0-0.4,0-0.5,0.1
			c-0.3,0-0.6,0.1-0.9,0.1c-0.2,0-0.3,0.1-0.5,0.1c-0.5,0.1-0.9,0.2-1.4,0.3c-0.2,0-0.3,0.1-0.5,0.2c-0.2,0.1-0.4,0.1-0.7,0.2
			c0,0,0,0,0,0c-0.2,0.1-0.3,0.1-0.5,0.2c-0.1,0-0.2,0.1-0.3,0.1c0,0,0,0-0.1,0c0,0-0.1,0-0.1,0c-0.3,0.1-0.5,0.2-0.8,0.3
			c-0.1,0-0.1,0-0.2,0.1c-0.1,0-0.2,0.1-0.3,0.2c-0.1,0-0.2,0.1-0.3,0.1c0,0-0.1,0-0.1,0c-0.1,0-0.1,0.1-0.2,0.1
			c-0.2,0.1-0.5,0.2-0.7,0.4c-0.1,0-0.2,0.1-0.2,0.1c-0.1,0-0.2,0.1-0.3,0.1c-0.1,0.1-0.2,0.1-0.3,0.2c0,0-0.1,0-0.1,0.1
			c-0.1,0-0.2,0.1-0.3,0.1c-0.2,0.1-0.5,0.3-0.7,0.4c-0.1,0.1-0.2,0.1-0.3,0.2c-0.1,0-0.1,0.1-0.2,0.1c-0.1,0.1-0.2,0.1-0.3,0.2
			c-0.1,0-0.1,0.1-0.2,0.1c-0.1,0.1-0.2,0.1-0.3,0.2c-0.2,0.1-0.5,0.3-0.7,0.4c-0.1,0.1-0.2,0.1-0.4,0.2c0,0-0.1,0.1-0.1,0.1
			c-0.1,0.1-0.2,0.1-0.3,0.2c-0.1,0-0.1,0.1-0.2,0.1c-0.1,0.1-0.2,0.2-0.4,0.2c-0.2,0.1-0.5,0.3-0.7,0.4c-0.1,0.1-0.3,0.2-0.4,0.3
			c0,0-0.1,0-0.1,0.1c-0.1,0.1-0.2,0.1-0.3,0.2c-0.1,0.1-0.2,0.1-0.3,0.2c-0.1,0.1-0.3,0.2-0.4,0.3c-0.2,0.2-0.5,0.3-0.7,0.5
			c-0.1,0.1-0.3,0.2-0.4,0.3c0,0,0,0-0.1,0.1c-0.1,0.1-0.2,0.1-0.3,0.2c-0.1,0.1-0.2,0.2-0.3,0.2c-0.1,0.1-0.3,0.2-0.4,0.3
			c-0.2,0.2-0.5,0.3-0.7,0.5c-0.1,0.1-0.3,0.2-0.4,0.3c0,0,0,0,0,0c-0.1,0.1-0.1,0.1-0.2,0.2c-0.1,0.1-0.3,0.2-0.4,0.3
			c-0.1,0.1-0.3,0.2-0.4,0.3c-0.2,0.2-0.5,0.4-0.7,0.6c-0.1,0.1-0.3,0.2-0.4,0.3c0,0,0,0,0,0c0,0-0.1,0.1-0.1,0.1
			c-0.2,0.2-0.4,0.4-0.7,0.5c-0.1,0.1-0.2,0.2-0.4,0.3c-0.4,0.3-0.8,0.6-1.2,1c-0.4,0.3-0.7,0.6-1.1,0.9c0,0,0,0,0,0
			c-0.2,0.1-0.3,0.3-0.5,0.4c0,0-0.1,0.1-0.1,0.1c-0.2,0.1-0.3,0.3-0.5,0.4c0,0,0,0,0,0c-0.2,0.2-0.4,0.3-0.6,0.5c0,0,0,0,0,0
			c-0.3,0.2-0.6,0.5-0.8,0.7c-0.1,0.1-0.2,0.1-0.2,0.2c0,0,0,0,0,0c-0.1,0.1-0.3,0.2-0.4,0.3c0,0,0,0,0,0c-0.2,0.2-0.4,0.4-0.7,0.6
			c0,0,0,0,0,0c-0.1,0.1-0.2,0.2-0.3,0.3c0,0,0,0,0,0c-0.2,0.2-0.4,0.4-0.7,0.6c0,0,0,0,0,0c-0.1,0.1-0.2,0.2-0.3,0.3c0,0,0,0,0,0
			c-0.2,0.2-0.5,0.4-0.7,0.6c0,0,0,0,0,0c-0.2,0.2-0.4,0.3-0.5,0.5c-0.1,0.1-0.3,0.3-0.4,0.4c0,0,0,0,0,0c-0.1,0.1-0.2,0.1-0.2,0.2
			c0,0,0,0,0,0c-0.2,0.2-0.5,0.4-0.7,0.6c0,0,0,0,0,0c-0.1,0.1-0.1,0.1-0.2,0.2c0,0,0,0,0,0c-0.2,0.2-0.5,0.4-0.7,0.6c0,0,0,0,0,0
			c-0.1,0.1-0.2,0.1-0.2,0.2c-0.2,0.2-0.4,0.4-0.6,0.6c0,0,0,0,0,0c0,0-0.1,0.1-0.1,0.1l0,0c-0.2,0.2-0.5,0.5-0.7,0.7l0,0
			c0,0-0.1,0.1-0.1,0.1c0,0,0,0,0,0c-0.2,0.2-0.5,0.5-0.7,0.7c0,0,0,0,0,0c0,0,0,0,0,0l0,0c0,0,0,0,0,0c-0.3,0.3-0.6,0.6-0.8,0.9
			c-0.1,0.1-0.1,0.2-0.2,0.2c-0.2,0.2-0.4,0.4-0.6,0.6c-0.1,0.1-0.2,0.2-0.2,0.3c-0.2,0.2-0.3,0.4-0.5,0.6c-0.1,0.1-0.2,0.2-0.2,0.3
			c-0.2,0.2-0.3,0.4-0.5,0.6c-0.1,0.1-0.1,0.2-0.2,0.2c-0.2,0.3-0.4,0.5-0.6,0.8c0,0,0,0,0,0c-0.2,0.3-0.4,0.6-0.6,0.8
			c0,0.1-0.1,0.1-0.1,0.2c-0.1,0.2-0.3,0.4-0.4,0.6c-0.1,0.1-0.1,0.2-0.2,0.3c-0.1,0.2-0.2,0.4-0.3,0.5c-0.1,0.1-0.1,0.2-0.1,0.3
			c-0.1,0.2-0.2,0.4-0.3,0.5c0,0.1-0.1,0.2-0.1,0.3c-0.1,0.2-0.2,0.4-0.2,0.6c0,0.1-0.1,0.1-0.1,0.2c-0.1,0.3-0.2,0.5-0.2,0.8
			c0,0.1,0,0.1,0,0.2c-0.1,0.2-0.1,0.4-0.1,0.6c0,0.1,0,0.2,0,0.3c0,0.2-0.1,0.3-0.1,0.5c0,0.1,0,0.2,0,0.3c0,0.2,0,0.3,0,0.5
			c0,0.1,0,0.2,0,0.3c0,0.2,0,0.4,0,0.5c0,0.1,0,0.2,0,0.2c0,0.3,0.1,0.5,0.1,0.8l1.2,1.3l0,0l1.3,1.5c-0.6,0.1-0.9,0.1-0.9,0.1
			s0.2,0,0.7,0c0.1,0,0.2,0,0.3,0l3,3.4c3,0.7,7.2-0.1,12-2.2l0,0c0.1,0,0.2-0.1,0.2-0.1c0.5-0.2,1.1-0.5,1.6-0.7
			c0.2-0.1,0.3-0.2,0.5-0.2c1.5-0.7,3-1.5,4.5-2.4c0,0,0.1-0.1,0.1-0.1c0.7-0.4,1.4-0.9,2.1-1.3c0.1,0,0.1-0.1,0.1-0.1l0,0
			c1-0.6,2-1.3,3-2l0,0c0.1-0.1,0.2-0.1,0.3-0.2c0.6-0.4,1.2-0.9,1.8-1.3c0.2-0.2,0.4-0.3,0.6-0.5c0.8-0.6,1.6-1.3,2.4-1.9
			c0.1-0.1,0.2-0.1,0.2-0.2l0,0c11.9-9.9,18.2-20.1,16.9-25.8L342.3,295.5z"/>
		<path class="st1" d="M364,215.4l0-0.2h0l0.2-2.7c-0.6-1.3-1.6-2.3-2.9-3.2l0,0l0,0l-11.4,0.9l0,0l-1.7,0.1l-7.4,0.6l-1.7,0.1l0,0
			l-31.9,2.5l0,0l0,0l-0.3,4.7c2.3,4.9,12.7,8.6,27.2,9.1l0,0c0.1,0,0.2,0,0.3,0h0c1,0,1.9,0,2.9,0c0.2,0,0.5,0,0.7,0
			c0.7,0,1.4,0,2.1-0.1c0.1,0,0.2,0,0.3,0l0,0c1.1,0,2.3-0.1,3.4-0.2l0,0c0.1,0,0.1,0,0.2,0c0.8-0.1,1.6-0.2,2.3-0.2
			c0.1,0,0.1,0,0.2,0c1.7-0.2,3.2-0.5,4.7-0.8c0.2,0,0.3-0.1,0.5-0.1c0.5-0.1,1.1-0.2,1.6-0.4c0.1,0,0.2,0,0.2-0.1l0,0
			c4.7-1.3,8.3-3.1,10.1-5.2l0.3-4.3c0.2-0.2,0.5-0.3,0.7-0.5L364,215.4z"/>
	</g>
</g>
</svg>
