<?xml version="1.0" encoding="utf-8"?>
<!-- Generator: Adobe Illustrator 22.1.0, SVG Export Plug-In . SVG Version: 6.00 Build 0)  -->
<svg version="1.1" id="Layer_1" xmlns="http://www.w3.org/2000/svg" xmlns:xlink="http://www.w3.org/1999/xlink" x="0px" y="0px"
	 viewBox="0 0 100 99.6" style="enable-background:new 0 0 100 99.6;" xml:space="preserve">
<style type="text/css">
	.st0{fill:#CBCED2;}
</style>
<g>
	<path class="st0" d="M83.6,83.6c-18.5,18.5-48.7,18.5-67.2,0c-18.5-18.5-18.5-48.7,0-67.2c18.5-18.5,48.7-18.5,67.2,0
		S102.1,65.1,83.6,83.6z M18,18C0.3,35.6,0.3,64.4,18,82C35.6,99.7,64.4,99.7,82,82C99.7,64.4,99.7,35.6,82,18
		C64.4,0.3,35.6,0.3,18,18z"/>
</g>
<path class="st0" d="M6.4,49h41l-29-29C10.8,28,6.7,38,6.4,49z M17.1,43.2c-1.4,1.4-3.6,1.4-5,0s-1.4-3.6,0-5s3.6-1.4,5,0
	S18.5,41.8,17.1,43.2z M32.8,45.1c-0.9,0.9-2.4,0.9-3.4,0c-0.9-0.9-0.9-2.4,0-3.4s2.4-0.9,3.4,0C33.8,42.7,33.8,44.2,32.8,45.1z
	 M27,37c-1.1,1.1-3,1.1-4.1,0s-1.1-3,0-4.1s3-1.1,4.1,0C28.2,34,28.2,35.9,27,37z"/>
<path class="st0" d="M18.4,80l29-29h-41C6.7,62,10.8,72,18.4,80z M21.9,68.4c0,2-1.6,3.5-3.5,3.5s-3.5-1.6-3.5-3.5
	c0-2,1.6-3.5,3.5-3.5S21.9,66.5,21.9,68.4z M34.4,58.7c0,1.3-1.1,2.4-2.4,2.4c-1.3,0-2.4-1.1-2.4-2.4s1.1-2.4,2.4-2.4
	C33.3,56.3,34.4,57.4,34.4,58.7z M24.6,57c0,1.6-1.3,2.9-2.9,2.9s-2.9-1.3-2.9-2.9s1.3-2.9,2.9-2.9C23.3,54.1,24.6,55.4,24.6,57z"/>
<path class="st0" d="M49,93.6v-41l-29,29C28,89.2,38,93.3,49,93.6z M43.2,82.9c1.4,1.4,1.4,3.6,0,5c-1.4,1.4-3.6,1.4-5,0
	s-1.4-3.6,0-5C39.6,81.5,41.8,81.5,43.2,82.9z M45.1,67.2c0.9,0.9,0.9,2.4,0,3.4c-0.9,0.9-2.4,0.9-3.4,0s-0.9-2.4,0-3.4
	C42.7,66.2,44.2,66.2,45.1,67.2z M37,73c1.1,1.1,1.1,3,0,4.1s-3,1.1-4.1,0s-1.1-3,0-4.1C34,71.8,35.9,71.8,37,73z"/>
<path class="st0" d="M80,81.6l-29-29v41C62,93.3,72,89.2,80,81.6z M68.4,78.1c2,0,3.5,1.6,3.5,3.5c0,2-1.6,3.5-3.5,3.5
	c-2,0-3.5-1.6-3.5-3.5S66.5,78.1,68.4,78.1z M58.7,65.6c1.3,0,2.4,1.1,2.4,2.4c0,1.3-1.1,2.4-2.4,2.4s-2.4-1.1-2.4-2.4
	C56.3,66.7,57.4,65.6,58.7,65.6z M57,75.4c1.6,0,2.9,1.3,2.9,2.9s-1.3,2.9-2.9,2.9s-2.9-1.3-2.9-2.9C54.1,76.7,55.4,75.4,57,75.4z"
	/>
<path class="st0" d="M93.6,51h-41l29,29C89.2,72,93.3,62,93.6,51z M82.9,56.8c1.4-1.4,3.6-1.4,5,0c1.4,1.4,1.4,3.6,0,5s-3.6,1.4-5,0
	C81.5,60.4,81.5,58.2,82.9,56.8z M67.2,54.9c0.9-0.9,2.4-0.9,3.4,0c0.9,0.9,0.9,2.4,0,3.4s-2.4,0.9-3.4,0
	C66.2,57.3,66.2,55.8,67.2,54.9z M73,63c1.1-1.1,3-1.1,4.1,0c1.1,1.1,1.1,3,0,4.1s-3,1.1-4.1,0C71.8,66,71.8,64.1,73,63z"/>
<path class="st0" d="M81.6,20l-29,29h41C93.3,38,89.2,28,81.6,20z M78.1,31.6c0-2,1.6-3.5,3.5-3.5c2,0,3.5,1.6,3.5,3.5
	s-1.6,3.5-3.5,3.5S78.1,33.5,78.1,31.6z M65.6,41.3c0-1.3,1.1-2.4,2.4-2.4c1.3,0,2.4,1.1,2.4,2.4s-1.1,2.4-2.4,2.4
	C66.7,43.7,65.6,42.6,65.6,41.3z M75.4,43c0-1.6,1.3-2.9,2.9-2.9s2.9,1.3,2.9,2.9s-1.3,2.9-2.9,2.9C76.7,45.9,75.4,44.6,75.4,43z"/>
<path class="st0" d="M51,6.4v41l29-29C72,10.8,62,6.7,51,6.4z M56.8,17.1c-1.4-1.4-1.4-3.6,0-5s3.6-1.4,5,0s1.4,3.6,0,5
	S58.2,18.5,56.8,17.1z M54.9,32.8c-0.9-0.9-0.9-2.4,0-3.4c0.9-0.9,2.4-0.9,3.4,0s0.9,2.4,0,3.4C57.3,33.8,55.8,33.8,54.9,32.8z
	 M63,27c-1.1-1.1-1.1-3,0-4.1c1.1-1.1,3-1.1,4.1,0s1.1,3,0,4.1C66,28.2,64.1,28.2,63,27z"/>
<path class="st0" d="M20,18.4l29,29v-41C38,6.7,28,10.8,20,18.4z M31.6,21.9c-2,0-3.5-1.6-3.5-3.5s1.6-3.5,3.5-3.5s3.5,1.6,3.5,3.5
	S33.5,21.9,31.6,21.9z M41.3,34.4c-1.3,0-2.4-1.1-2.4-2.4c0-1.3,1.1-2.4,2.4-2.4s2.4,1.1,2.4,2.4C43.7,33.3,42.6,34.4,41.3,34.4z
	 M43,24.6c-1.6,0-2.9-1.3-2.9-2.9s1.3-2.9,2.9-2.9s2.9,1.3,2.9,2.9C45.9,23.3,44.6,24.6,43,24.6z"/>
</svg>
